<?xml version="1.0" encoding="UTF-8"?>
<svg id="_Слой_2" data-name="Слой 2" xmlns="http://www.w3.org/2000/svg" viewBox="0 0 63.16 45.26">
  <defs>
    <style>
      .cls-1, .cls-2 {
        fill: #27348b;
      }

      .cls-3 {
        fill: #e6332a;
      }

      .cls-2, .cls-4 {
        stroke: #1d1d1b;
        stroke-miterlimit: 10;
      }

      .cls-5 {
        fill: #009fe3;
      }

      .cls-4 {
        fill: none;
      }

      .cls-6 {
        fill: #f9b233;
      }

      .cls-7 {
        fill: #ffed00;
      }

      .cls-8 {
        fill: #e6007e;
      }
    </style>
  </defs>
  <g id="_Слой_1-2" data-name="Слой 1">
    <g>
      <g>
        <path class="cls-3" d="m7.66,44.69H1.5l-1-1V1.5L1.5.5h6.16c2.04,0,2.47,5.13,2.47,9.44v25.31c0,4.31-.43,9.44-2.47,9.44Zm-5.16-2h4.79c.34-.76.84-3.33.84-7.44V9.94c0-4.11-.5-6.68-.84-7.44H2.5v40.19Z"/>
        <path class="cls-4" d="m7.66,44.69H1.5l-1-1V1.5L1.5.5h6.16c2.04,0,2.47,5.13,2.47,9.44v25.31c0,4.31-.43,9.44-2.47,9.44Zm-5.16-2h4.79c.34-.76.84-3.33.84-7.44V9.94c0-4.11-.5-6.68-.84-7.44H2.5v40.19Z"/>
      </g>
      <g>
        <g>
          <polygon class="cls-7" points="23.49 44.69 13.71 44.69 12.71 43.69 12.71 22.59 13.71 21.59 23.49 21.59 23.49 23.59 14.71 23.59 14.71 42.69 23.49 42.69 23.49 44.69"/>
          <polygon class="cls-4" points="23.49 44.69 13.71 44.69 12.71 43.69 12.71 22.59 13.71 21.59 23.49 21.59 23.49 23.59 14.71 23.59 14.71 42.69 23.49 42.69 23.49 44.69"/>
        </g>
        <g>
          <rect class="cls-7" x="14.69" y="32.14" width="8.8" height="2"/>
          <rect class="cls-4" x="14.69" y="32.14" width="8.8" height="2"/>
        </g>
      </g>
      <g>
        <g>
          <polygon class="cls-5" points="37 44.69 27.87 44.69 26.87 43.69 26.87 21.13 28.87 21.13 28.87 42.69 37 42.69 37 44.69"/>
          <polygon class="cls-4" points="37 44.69 27.87 44.69 26.87 43.69 26.87 21.13 28.87 21.13 28.87 42.69 37 42.69 37 44.69"/>
        </g>
        <g>
          <rect class="cls-5" x="25.92" y="30.67" width="6.52" height="2"/>
          <rect class="cls-4" x="25.92" y="30.67" width="6.52" height="2"/>
        </g>
      </g>
      <g>
        <g>
          <polygon class="cls-8" points="46.86 36.19 44.91 34.48 42.58 34.48 40.92 36.15 39.51 34.73 41.46 32.78 42.17 32.48 45.29 32.48 45.94 32.73 48.18 34.69 46.86 36.19"/>
          <polygon class="cls-4" points="46.86 36.19 44.91 34.48 42.58 34.48 40.92 36.15 39.51 34.73 41.46 32.78 42.17 32.48 45.29 32.48 45.94 32.73 48.18 34.69 46.86 36.19"/>
        </g>
        <g>
          <rect class="cls-8" x="39.21" y="32.18" width="2" height="12.59"/>
          <rect class="cls-4" x="39.21" y="32.18" width="2" height="12.59"/>
        </g>
      </g>
      <g>
        <g>
          <rect class="cls-1" x="50.5" y="35.44" width="2" height="9.33"/>
          <rect class="cls-4" x="50.5" y="35.44" width="2" height="9.33"/>
        </g>
        <path class="cls-2" d="m51.86,34.16l.85-.85v-1.4s-1.11-1.11-1.11-1.11h-.16s-1.11,1.11-1.11,1.11v1.4l.85.85c.19.19.49.19.67,0Z"/>
      </g>
      <g>
        <polygon class="cls-6" points="61.66 44.69 55.99 44.69 55.99 42.69 60.66 42.69 60.66 36.27 55.99 36.27 54.99 35.27 54.99 27.94 55.99 26.94 61.66 26.94 62.66 27.94 62.66 32.21 60.66 32.21 60.66 28.94 56.99 28.94 56.99 34.27 61.66 34.27 62.66 35.27 62.66 43.69 61.66 44.69"/>
        <polygon class="cls-4" points="61.66 44.69 55.99 44.69 55.99 42.69 60.66 42.69 60.66 36.27 55.99 36.27 54.99 35.27 54.99 27.94 55.99 26.94 61.66 26.94 62.66 27.94 62.66 32.21 60.66 32.21 60.66 28.94 56.99 28.94 56.99 34.27 61.66 34.27 62.66 35.27 62.66 43.69 61.66 44.69"/>
      </g>
    </g>
  </g>
</svg>