<?xml version="1.0" encoding="UTF-8"?>
<svg id="_Слой_2" data-name="Слой 2" xmlns="http://www.w3.org/2000/svg" viewBox="0 0 53.98 128.13">
  <defs>
    <style>
      .cls-1 {
        fill: none;
        stroke: #009fe3;
        stroke-miterlimit: 10;
      }
    </style>
  </defs>
  <g id="Numbers">
    <g id="_0" data-name="0">
      <path class="cls-1" d="m51.48,127.63H2.5c-1.1,0-2-.9-2-2V2.5C.5,1.4,1.4.5,2.5.5h48.98c1.1,0,2,.9,2,2s-.9,2-2,2H4.5v119.13h46.98c1.1,0,2,.9,2,2s-.9,2-2,2Z"/>
      <path class="cls-1" d="m2.5,127.63c-1.1,0-2-.9-2-2V2.5C.5,1.4,1.4.5,2.5.5s2,.9,2,2v123.13c0,1.1-.9,2-2,2Z"/>
      <path class="cls-1" d="m51.48,4.5H2.5c-1.1,0-2-.9-2-2S1.4.5,2.5.5h48.98c1.1,0,2,.9,2,2s-.9,2-2,2Z"/>
      <path class="cls-1" d="m51.48,127.63H2.5c-1.1,0-2-.9-2-2s.9-2,2-2h48.98c1.1,0,2,.9,2,2s-.9,2-2,2Z"/>
      <path class="cls-1" d="m51.48,127.63c-1.1,0-2-.9-2-2V2.5c0-1.1.9-2,2-2s2,.9,2,2v123.13c0,1.1-.9,2-2,2Z"/>
    </g>
  </g>
</svg>