<?xml version="1.0" encoding="UTF-8"?>
<svg id="_Слой_2" data-name="Слой 2" xmlns="http://www.w3.org/2000/svg" viewBox="0 0 39.05 126.09">
  <defs>
    <style>
      .cls-1 {
        fill: none;
        stroke: #009fe3;
        stroke-miterlimit: 10;
      }
    </style>
  </defs>
  <g id="Numbers">
    <g id="_1" data-name="1">
      <path class="cls-1" d="m36.55,125.59c-1.1,0-2-.9-2-2V5.77L4.15,50.24c-.62.91-1.87,1.15-2.78.52s-1.15-1.87-.52-2.78L32.42,1.8c.07-.1.15-.2.24-.29.99-.99,2.47-1.27,3.76-.74,1.29.54,2.13,1.79,2.13,3.19v119.64c0,1.1-.9,2-2,2Z"/>
      <path class="cls-1" d="m36.55,8.8c-1.1,0-2-.9-2-2v-1.03l-.14.21c-.62.91-1.87,1.15-2.78.52-.91-.62-1.15-1.87-.52-2.78l1.31-1.92c.07-.1.15-.2.24-.29.99-.99,2.47-1.27,3.76-.74,1.29.54,2.13,1.79,2.13,3.19v2.84c0,1.1-.9,2-2,2Z"/>
    </g>
  </g>
</svg>