<?xml version="1.0" encoding="UTF-8"?>
<svg id="_Слой_2" data-name="Слой 2" xmlns="http://www.w3.org/2000/svg" viewBox="0 0 53.98 126.09">
  <defs>
    <style>
      .cls-1 {
        fill: none;
        stroke: #009fe3;
        stroke-miterlimit: 10;
      }
    </style>
  </defs>
  <g id="Numbers">
    <g id="_4" data-name="4">
      <g>
        <path class="cls-1" d="m51.48,65.05H2.5c-1.1,0-2-.9-2-2s.9-2,2-2h48.98c1.1,0,2,.9,2,2s-.9,2-2,2Z"/>
        <path class="cls-1" d="m2.5,65.05c-.44,0-.89-.15-1.26-.45-.86-.69-.99-1.95-.3-2.81L49.92,1.24c.7-.86,1.96-.99,2.81-.3.86.69.99,1.95.3,2.81L4.06,64.3c-.4.49-.97.74-1.56.74Z"/>
        <path class="cls-1" d="m51.48,65.05c-1.1,0-2-.9-2-2V2.5c0-1.1.9-2,2-2s2,.9,2,2v60.55c0,1.1-.9,2-2,2Z"/>
        <path class="cls-1" d="m51.48,125.59c-1.1,0-2-.9-2-2v-60.55c0-1.1.9-2,2-2s2,.9,2,2v60.55c0,1.1-.9,2-2,2Z"/>
      </g>
    </g>
  </g>
</svg>