<?xml version="1.0" encoding="UTF-8"?>
<svg id="_Слой_2" data-name="Слой 2" xmlns="http://www.w3.org/2000/svg" viewBox="0 0 408.04 128.13">
  <defs>
    <style>
      .cls-1 {
        fill: none;
        stroke: #009fe3;
        stroke-miterlimit: 10;
      }
    </style>
  </defs>
  <g id="_Слой_1-2" data-name="Слой 1">
    <g>
      <g id="S">
        <g>
          <path class="cls-1" d="m64.59,4.5H2.5c-1.1,0-2-.9-2-2S1.4.5,2.5.5h62.09c1.1,0,2,.9,2,2s-.9,2-2,2Z"/>
          <path class="cls-1" d="m2.5,66.06c-1.1,0-2-.9-2-2V2.5C.5,1.4,1.4.5,2.5.5s2,.9,2,2v61.56c0,1.1-.9,2-2,2Z"/>
          <path class="cls-1" d="m64.59,66.06H2.5c-1.1,0-2-.9-2-2s.9-2,2-2h62.09c1.1,0,2,.9,2,2s-.9,2-2,2Z"/>
        </g>
        <g>
          <path class="cls-1" d="m64.59,127.63H2.5c-1.1,0-2-.9-2-2s.9-2,2-2h62.09c1.1,0,2,.9,2,2s-.9,2-2,2Z"/>
          <path class="cls-1" d="m64.59,127.63c-1.1,0-2-.9-2-2v-61.57c0-1.1.9-2,2-2s2,.9,2,2v61.57c0,1.1-.9,2-2,2Z"/>
          <path class="cls-1" d="m64.59,66.06H2.5c-1.1,0-2-.9-2-2s.9-2,2-2h62.09c1.1,0,2,.9,2,2s-.9,2-2,2Z"/>
        </g>
      </g>
      <g id="C">
        <path class="cls-1" d="m138.02,127.63h-48.98c-1.1,0-2-.9-2-2V2.5c0-1.1.9-2,2-2h48.98c1.1,0,2,.9,2,2s-.9,2-2,2h-46.98v119.13h46.98c1.1,0,2,.9,2,2s-.9,2-2,2Z"/>
        <path class="cls-1" d="m89.04,127.63c-1.1,0-2-.9-2-2V2.5c0-1.1.9-2,2-2s2,.9,2,2v123.13c0,1.1-.9,2-2,2Z"/>
        <path class="cls-1" d="m138.02,4.5h-48.98c-1.1,0-2-.9-2-2s.9-2,2-2h48.98c1.1,0,2,.9,2,2s-.9,2-2,2Z"/>
        <path class="cls-1" d="m138.02,127.63h-48.98c-1.1,0-2-.9-2-2s.9-2,2-2h48.98c1.1,0,2,.9,2,2s-.9,2-2,2Z"/>
      </g>
      <g>
        <path class="cls-1" d="m219.15,4.5h-61.43c-1.1,0-2-.9-2-2s.9-2,2-2h61.43c1.1,0,2,.9,2,2s-.9,2-2,2Z"/>
        <path class="cls-1" d="m219.15,127.63c-1.1,0-2-.9-2-2V2.5c0-1.1.9-2,2-2s2,.9,2,2v123.13c0,1.1-.9,2-2,2Z"/>
        <path class="cls-1" d="m219.15,127.63h-61.43c-1.1,0-2-.9-2-2s.9-2,2-2h61.43c1.1,0,2,.9,2,2s-.9,2-2,2Z"/>
        <path class="cls-1" d="m157.72,127.63c-1.1,0-2-.9-2-2V2.5c0-1.1.9-2,2-2s2,.9,2,2v123.13c0,1.1-.9,2-2,2Z"/>
      </g>
      <path class="cls-1" d="m327.28,127.63c-.47,0-.95-.17-1.33-.5l-64.4-57.18c-4.51-4-5.97-9.98-3.82-15.61,2.14-5.61,7.2-9.08,13.19-9.08h.07l44.1.2h.05c2.7,0,5.23-1.05,7.15-2.95,1.92-1.92,2.98-4.46,2.98-7.18V14.63c0-5.59-4.54-10.13-10.13-10.13h-64.17c-5.59,0-10.13,4.54-10.13,10.13v111c0,1.1-.9,2-2,2s-2-.9-2-2V14.63c0-7.79,6.34-14.13,14.13-14.13h64.17c7.79,0,14.13,6.34,14.13,14.13v20.69c0,3.79-1.48,7.34-4.16,10.01-2.68,2.67-6.23,4.13-10.03,4.12l-44.1-.2h-.05c-5.13,0-8.25,3.36-9.46,6.51-1.21,3.16-1.13,7.76,2.74,11.19l64.4,57.18c.83.73.9,2,.17,2.82-.39.44-.94.67-1.5.67Z"/>
      <g>
        <path class="cls-1" d="m405.54,127.63h-37.21c-8.78,0-15.92-7.14-15.92-15.92V16.42c0-8.78,7.14-15.92,15.92-15.92h37.21c1.1,0,2,.9,2,2s-.9,2-2,2h-37.21c-6.58,0-11.92,5.35-11.92,11.92v95.28c0,6.58,5.35,11.92,11.92,11.92h37.21c1.1,0,2,.9,2,2s-.9,2-2,2Z"/>
        <path class="cls-1" d="m405.54,66.06h-51.13c-1.1,0-2-.9-2-2s.9-2,2-2h51.13c1.1,0,2,.9,2,2s-.9,2-2,2Z"/>
      </g>
    </g>
  </g>
</svg>